<?xml version="1.0" encoding="utf-8"?>
<!-- Generator: Adobe Illustrator 25.3.1, SVG Export Plug-In . SVG Version: 6.00 Build 0)  -->
<svg version="1.1" id="Vrstva_1" xmlns="http://www.w3.org/2000/svg" xmlns:xlink="http://www.w3.org/1999/xlink" x="0px" y="0px"
	 viewBox="0 0 500 500" style="enable-background:new 0 0 500 500;" xml:space="preserve">
<style type="text/css">
	.st0{fill:#00655F;}
	.st1{fill:#007A7B;}
</style>
<g id="logo_zelene">
	<g>
		<path class="st0" d="M367.7,220.9c0-7,5-12,11.8-12c6.8,0,11.8,5,11.8,12c0,7-5,12-11.8,12C372.6,233,367.7,227.9,367.7,220.9z
			 M388.5,220.9c0-6-3.6-9.4-9-9.4c-5.4,0-9,3.5-9,9.4s3.6,9.4,9,9.4C384.9,230.3,388.5,226.9,388.5,220.9z M375.1,215h5
			c2.6,0,4.3,1.6,4.3,3.7c0,1.6-0.8,3.1-2.3,3.7l2.9,4.3v0.4h-2.6l-2.7-4.3h-2v4.3h-2.6V215z M380.1,220.6c1,0,1.8-0.5,1.8-1.6
			c0-1.1-0.8-1.6-1.8-1.6h-2.4v3.3H380.1z"/>
	</g>
	<g>
		<path class="st0" d="M68.7,442v1.1H50.5l-21-26.6v26.6H15.1v-83.7h14.4v47.7l20.5-22.8h17.6v1.1l-23.7,26.1L68.7,442z"/>
		<path class="st0" d="M69.2,413.8c0-17.4,9.8-30.5,28.6-30.5c18.7,0,28.5,13.1,28.5,30.5c0,17.3-9.6,30.3-28.5,30.3
			C78.8,444.1,69.2,431.2,69.2,413.8z M110.9,413.8c0-11.3-4.6-17.2-13.1-17.2c-8.6,0-13.1,6-13.1,17.2s4.6,17,13.1,17
			S110.9,425,110.9,413.8z"/>
		<path class="st0" d="M224.9,404.5v38.6h-15.2v-34.3c0-7.4-2.8-11.8-10.2-11.8c-7.1,0-11.2,5.2-11.2,13.5v32.6h-15v-34.3
			c0-7.4-2.8-11.8-10.3-11.8c-7,0-11.9,5.1-11.9,13.5v32.6H136v-58.8h13.6l1.1,6.7h0.5c3.3-4.4,8.5-7.7,16.5-7.7
			c8.3,0,14.2,3.2,17.6,8.7h0.3c3.1-4.5,8.8-8.7,18-8.7C216.6,383.3,224.9,391.5,224.9,404.5z"/>
		<path class="st0" d="M238,384.3h13.6l1.6,6.3h0.5c2.9-3.8,7.8-7.4,16.3-7.4c14.8,0,24.1,12.4,24.1,30.5c0,17.4-8.8,30.3-24.1,30.3
			c-8.5,0-13.3-3.5-16.3-7.4h-0.5V469H238V384.3z M278.6,413.8c0-9.3-3.4-17.2-13-17.2c-9.4,0-13,7.9-13,17.2c0,9.2,3.4,17,13,17
			C275.4,430.8,278.6,423,278.6,413.8z"/>
		<path class="st0" d="M364.9,385.4v-1.1h15.6l13.6,43.9h0.5l13.2-43.9h15.4v1.1l-19.7,57.7h-18.7L364.9,385.4z"/>
		<path class="st0" d="M343.5,384.5l-1.6,6.3v0h-0.5c-2.9-3.8-7.8-7.4-16.2-7.4c-15.4,0-24.2,12.9-24.2,30.4
			c0,18,9.2,30.4,24.2,30.4c8.4,0,13.2-3.5,16.2-7.4h0.5l1.6,6.3h13.6v-42.5v-9.9v-6.4H343.5z M329.5,431c-9.5,0-13-7.9-13-17.1
			c0-9.3,3.3-17.1,13-17.1c9.6,0,13,7.9,13,17.1S339,431,329.5,431z"/>
		<path class="st0" d="M466.9,384.5l-1.6,6.3v0h-0.5c-2.9-3.8-7.8-7.4-16.2-7.4c-15.4,0-24.2,12.9-24.2,30.4
			c0,18,9.2,30.4,24.2,30.4c8.4,0,13.2-3.5,16.2-7.4h0.5l1.6,6.3h13.6v-42.5v-9.9v-6.4H466.9z M452.9,431c-9.5,0-13-7.9-13-17.1
			c0-9.3,3.3-17.1,13-17.1c9.6,0,13,7.9,13,17.1S462.4,431,452.9,431z"/>
	</g>
	<path class="st0" d="M135.4,333.1l56.1-10.3c26.6-4.8,49.5-22.5,49.5-58.3V31l-56.1,10.3c-26.6,4.8-49.5,22.5-49.5,58.3V333.1z
		 M357,272.9c0-28.8-23.3-51.7-51.7-51.7h-53.9v43.2c0,35.8,22.9,53.5,49.5,58.3l56.1,10.3V272.9z"/>
	<path class="st1" d="M357,169.5v-60.2l-56.1,10.3c-26.6,4.8-49.5,22.5-49.5,58.3v43.2h53.9C333.7,221.2,357,198.3,357,169.5z"/>
</g>
</svg>
